<?xml version="1.0" encoding="UTF-8" standalone="no"?> <svg xmlns="http://www.w3.org/2000/svg" viewBox="0 0 133.462 91.578"><g id="Layer_2" data-name="Layer 2"><g id="Layer_1-2" data-name="Layer 1"><path d="M133.353,71.078a.991.991,0,0,0-.686-.519L83.348,60.773,81.486,49.6c2.1.07,4.21.13,5.145.13,2.349,0,3.373-2.38,3.607-3.787a.974.974,0,0,0,.013-.162V36.233a3.214,3.214,0,0,0-1.1-2.556,5.587,5.587,0,0,0-4.076-.9H76.92c-1.991,0-3.339,2.212-3.486,2.465a.983.983,0,0,0-.134.5V46.108A3.842,3.842,0,0,0,75.492,49.3a.991.991,0,0,0,.4.1l.466.017,1.244,5.909L15.624,63.614,7.2,9.9l62.514.753.223,2.562a3.642,3.642,0,0,0-1.371.838,3,3,0,0,0-.863,2.135c.007.263.164,6.461.164,8.69,0,2.556,2.329,3.377,3.621,3.456h8.394c2.6,0,3.291-2.907,3.291-4.444V16.483a2.835,2.835,0,0,0-.358-1.38h6.242a3.344,3.344,0,0,0,3.456-3.2v-9.1A2.658,2.658,0,0,0,90.187.01c-.036,0-.072,0-.11,0-.061,0-6.105.128-8.767,0-2.855-.139-3.9,1.769-4.05,2.8a.942.942,0,0,0-.01.14V12.2a2.239,2.239,0,0,0,.212.926c-.657-.047-1.709-.113-3.19-.186l-.724-6.872a.987.987,0,0,0-.952-.884L1.017,3.048a.966.966,0,0,0-.766.329.988.988,0,0,0-.241.8L10.125,74.2a.979.979,0,0,0,.131.367l1.167,1.945a.986.986,0,0,0,.547.433l45.9,14.588a.994.994,0,0,0,.3.047,1.042,1.042,0,0,0,.222-.025L131.724,74.63a.989.989,0,0,0,.677-.553l.972-2.14A.985.985,0,0,0,133.353,71.078ZM92.2,64.543l13.64,2.706L47.528,78.874,32.91,74.354l58.877-9.631A.98.98,0,0,0,92.2,64.543ZM75.274,46.108V36.029c.359-.517,1.052-1.278,1.646-1.278h8.229a1.128,1.128,0,0,0,.154-.011,3.846,3.846,0,0,1,2.571.442,1.246,1.246,0,0,1,.4,1.051V45.68c-.081.363-.522,2.074-1.646,2.074-1.894,0-8.994-.266-10.413-.32C75.914,47.238,75.274,46.746,75.274,46.108ZM81.2,23.886c0,.025-.05,2.472-1.317,2.472l-8.326,0c-.286-.021-1.714-.2-1.714-1.483,0-2.291-.158-8.486-.164-8.749l-.988.026.987-.041A1.045,1.045,0,0,1,70,15.407a1.749,1.749,0,0,1,.621-.363.987.987,0,0,0,.471.089.972.972,0,0,0,.6-.289,6.905,6.905,0,0,1,.743-.008c3.872.161,5.695.325,5.713.326a.78.78,0,0,0,.128,0,4.477,4.477,0,0,1,2.664.679.823.823,0,0,1,.26.639ZM79.224,3.043c.074-.287.419-1.128,1.992-1.063,2.585.123,8.027.019,8.815,0,.337.07.509.349.509.829v9.037a1.338,1.338,0,0,1-1.483,1.279H80.94c-.643-.094-1.716-.466-1.716-.925ZM11.844,72.284,2.133,5.057,71.675,7.136l.6,5.733c-.134,0-.258.007-.387.01L71.605,9.59a.987.987,0,0,0-.972-.9L6.056,7.91a1.126,1.126,0,0,0-.758.341.988.988,0,0,0-.229.8l8.753,55.823a.988.988,0,0,0,.975.835,1.2,1.2,0,0,0,.132-.008l63.992-8.559a.988.988,0,0,0,.836-1.182L78.4,49.491l1.077.039L81.35,60.8Zm118.961.531L58.214,89.567,12.924,75.174l-.582-.97L82.47,62.612l4.511.895L28.449,73.082A.987.987,0,0,0,28.316,75l18.867,5.835a.99.99,0,0,0,.485.025L110.1,68.412a.951.951,0,0,0,.439-.229l20.517,4.071Z"/><path d="M67.868,28.662H60.3c-2.79,0-3.8,2.735-3.945,4.181,0,.041,0,.081,0,.122,0,.069.165,6.918.165,8.37,0,2.124,3.07,3.085,3.686,3.256a1.091,1.091,0,0,0,.129.026,73.412,73.412,0,0,0,7.871.668c3.062,0,4.135-3.176,4.278-4.937V32.283C72.476,29.419,69.462,28.662,67.868,28.662ZM68.2,43.31a71.711,71.711,0,0,1-7.533-.64c-1.089-.32-2.178-.984-2.178-1.335,0-1.412-.145-7.566-.163-8.345.05-.364.4-2.353,1.973-2.353h7.571c.026,0,2.634.019,2.634,1.646l0,7.983C70.5,40.3,70.228,43.31,68.2,43.31Z"/></g></g></svg>